<?xml version="1.0" encoding="UTF-8"?>
<!DOCTYPE svg PUBLIC "-//W3C//DTD SVG 1.1//EN" "http://www.w3.org/Graphics/SVG/1.1/DTD/svg11.dtd">
<!-- Creator: CorelDRAW 2021 (64-Bit) -->
<svg xmlns="http://www.w3.org/2000/svg" xml:space="preserve" width="100mm" height="15mm" version="1.1" style="shape-rendering:geometricPrecision; text-rendering:geometricPrecision; image-rendering:optimizeQuality; fill-rule:evenodd; clip-rule:evenodd"
viewBox="0 0 10000 1500"
 xmlns:xlink="http://www.w3.org/1999/xlink"
 xmlns:xodm="http://www.corel.com/coreldraw/odm/2003">
 <defs>
  <style type="text/css">
   <![CDATA[
    .fil0 {fill:black}
    .fil1 {fill:#FE0000}
   ]]>
  </style>
 </defs>
 <g id="Слой_x0020_1">
  <metadata id="CorelCorpID_0Corel-Layer"/>
  <g id="_2257195709168">
   <g>
    <path class="fil0" d="M2310.41 1442.09l136.9 0 0 -691c12.32,9.02 286.06,490.25 293.35,521.51l84.75 0c4.68,-20.09 275.74,-508.61 293.35,-521.51l0 691 136.89 0 0 -958.28c-164.95,0 -128.56,-14.52 -173.93,67.27 -14.7,26.49 -28.57,47.59 -43.27,74.07l-104.39 188.96c-9.25,17.32 -12.5,19.6 -21.74,36.93l-126.03 232.51c-8.45,-9.72 -2.76,-2.88 -10.9,-15.17l-117.29 -208.67c-8.98,-17.71 -13.46,-23.4 -21.45,-37.21 -8.51,-14.72 -12.92,-26.35 -22.6,-42.58l-126.37 -225.66c-50.83,-83.67 -2.79,-70.45 -177.27,-70.45l0 958.28z"/>
    <path class="fil0" d="M7408.19 1318.22l-162.97 0 0 -710.55c164.3,0 303.48,-19.09 418.91,83.06 139.24,123.22 190.49,627.49 -255.94,627.49zm-443.28 -730.11l143.41 0 0 853.98c250.21,0 499.08,33.6 656.8,-125.47 44.63,-45.03 74.8,-79.73 98.57,-142.64 93.46,-247.36 25.89,-551.43 -240.24,-657.7 -135.96,-54.29 -500.21,-32.47 -697.65,-32.47 11.66,24.31 32.7,76.8 39.11,104.3z"/>
    <path class="fil0" d="M9292.16 731.53c0,86.11 -3.7,148.74 88.4,211.46 43.09,29.35 116.74,54.39 172.28,68.93 86.19,22.55 247.73,48.72 285.08,125.61 28.87,59.44 11.86,123.78 -48.07,156.88 -123.73,68.33 -347.67,11.5 -440.6,-72.38 -13.78,-12.44 -15.7,-17.4 -31.01,-27.66l-52.16 130.38c27.03,14.29 46.98,30.98 71.92,45.42 155.39,89.97 404.75,116.23 559.26,12.09 61.24,-41.26 94.41,-114.35 98.94,-188.04l0 -34.88c-3.97,-63.82 -29.83,-124.33 -78.04,-160.72 -52.67,-39.76 -97.51,-57.95 -169.64,-78.08 -81.03,-22.61 -215.71,-44.3 -277.8,-87.26 -68.72,-47.55 -68.58,-232.13 140.87,-232.13 82.47,0 110.06,3.43 186.43,35.22 62.93,26.2 76.4,65.71 113.43,75.61l45.64 -123.87c-129.96,-87.01 -181.06,-110.81 -345.5,-110.81 -161.46,0 -319.43,103.84 -319.43,254.23z"/>
    <path class="fil0" d="M446 659.82l149.94 397.65 -312.91 0c6.37,-27.34 27.85,-72.86 38.18,-98.71l80.09 -200.23c9.57,-23.93 27.63,-79.06 44.7,-98.71zm-449.8 782.27l143.42 0c19.77,-37.38 37.49,-90.5 54.93,-134.11 10.41,-26.01 17.66,-44.17 27.94,-69.85 9.51,-23.77 17.99,-49.09 27.95,-69.84l384.61 0c11.55,49.56 60.69,154.03 82.89,210.46 30.66,77.91 5.21,63.34 164.83,63.34 -0.77,-34.66 -37.04,-105.38 -50.3,-138.75 -17.14,-43.15 -43.99,-98.62 -54,-141.57l143.42 0c-6.41,-27.5 -27.45,-79.98 -39.12,-104.3l-149.94 0c-53.93,-112.42 -147.28,-369.89 -208.43,-508.64 -34.59,-78.49 4.84,-65.02 -124.03,-65.02 -22.45,0 -26.45,29.49 -34.49,50.25l-369.68 908.03z"/>
    <path class="fil0" d="M459.04 275.21c-8.27,-35.5 -128.48,-196.66 -136.9,-228.16l-189.04 0c22.67,33.86 101.04,104.3 135.26,138.53 108.88,108.85 41.49,89.63 190.68,89.63z"/>
   </g>
   <path class="fil1" d="M4794.11 979.25l0 -39.12c0,-179.69 171.88,-352.02 352.02,-352.02 156.08,0 282.65,63.4 352.1,202.02 61.33,122.4 52.09,282.99 -28.73,388.62 -39.15,51.15 -80.3,86.43 -138.59,115.65 -241.92,121.25 -536.8,-64.34 -536.8,-315.15zm-130.37 -19.56c0,100.88 38.97,205.95 89.84,281.72 167.17,249.02 535.97,301.84 765.82,71.99 326.67,-326.67 70.97,-855.66 -353.71,-855.66 -65.63,0 -158.05,23.6 -202.2,45.52 -56.81,28.23 -105.54,56.5 -151.64,102.59 -86.37,86.38 -148.11,227.31 -148.11,353.84z"/>
  </g>
 </g>
</svg>
